HIERARCHY
ROOT Hips
{
  OFFSET 10.6641 99.3378 16.8111
  CHANNELS 6 Xposition Yposition Zposition Zrotation Xrotation Yrotation
  JOINT ToSpine
  {
    OFFSET -0.0105055 1.38907 -7.13956
    CHANNELS 3 Zrotation Xrotation Yrotation
    JOINT Spine
    {
      OFFSET 0.0105055 10 1
      CHANNELS 3 Zrotation Xrotation Yrotation
      JOINT Spine1
      {
        OFFSET 0 12 1.60637
        CHANNELS 3 Zrotation Xrotation Yrotation
        JOINT Neck
        {
          OFFSET 0 27 2.26658
          CHANNELS 3 Zrotation Xrotation Yrotation
          JOINT Head
          {
            OFFSET 0 9 2.12705
            CHANNELS 3 Zrotation Xrotation Yrotation
            End Site
            {
              OFFSET 0 11 2
            }
          }
        }
        JOINT LeftShoulder
        {
          OFFSET 8 19.6109 2.86452
          CHANNELS 3 Zrotation Xrotation Yrotation
          JOINT LeftArm
          {
            OFFSET 12 1 0.681055
            CHANNELS 3 Zrotation Xrotation Yrotation
            JOINT LeftForeArm
            {
              OFFSET 19 0 -1.52608
              CHANNELS 3 Zrotation Xrotation Yrotation
              JOINT LeftHand
              {
                OFFSET 23 0 0
                CHANNELS 3 Zrotation Xrotation Yrotation
                End Site
                {
                  OFFSET 10 0 0
                }
              }
            }
          }
        }
        JOINT RightShoulder
        {
          OFFSET -8 19.6109 2.86452
          CHANNELS 3 Zrotation Xrotation Yrotation
          JOINT RightArm
          {
            OFFSET -12 1 0.681055
            CHANNELS 3 Zrotation Xrotation Yrotation
            JOINT RightForeArm
            {
              OFFSET -19 0 -1.52608
              CHANNELS 3 Zrotation Xrotation Yrotation
              JOINT RightHand
              {
                OFFSET -23 0 0
                CHANNELS 3 Zrotation Xrotation Yrotation
                End Site
                {
                  OFFSET -10 0 0
                }
              }
            }
          }
        }
      }
    }
  }
  JOINT LeftUpLeg
  {
    OFFSET 9 -7.17245 0
    CHANNELS 3 Zrotation Xrotation Yrotation
    JOINT LeftLeg
    {
      OFFSET 0 -44.1113 0
      CHANNELS 3 Zrotation Xrotation Yrotation
      JOINT LeftFoot
      {
        OFFSET 0 -36.1829 0
        CHANNELS 3 Zrotation Xrotation Yrotation
        JOINT LeftToeBase
        {
          OFFSET 0 -4.84184 13
          CHANNELS 3 Zrotation Xrotation Yrotation
          End Site
          {
            OFFSET 0 1 6
          }
        }
      }
    }
  }
  JOINT RightUpLeg
  {
    OFFSET -9 -7.17245 0
    CHANNELS 3 Zrotation Xrotation Yrotation
    JOINT RightLeg
    {
      OFFSET 0 -44.0551 0
      CHANNELS 3 Zrotation Xrotation Yrotation
      JOINT RightFoot
      {
        OFFSET 0 -36.1469 0
        CHANNELS 3 Zrotation Xrotation Yrotation
        JOINT RightToeBase
        {
          OFFSET 0 -4.92256 13
          CHANNELS 3 Zrotation Xrotation Yrotation
          End Site
          {
            OFFSET 0 1 6
          }
        }
      }
    }
  }
}
MOTION
Frames:	12
Frame Time:	0.0333333
10.6596 99.3375 16.8111 0.444372 -4.42636 -2.22279 0 0 0 3.02397 -0.594063 0.469859 -4.48776 6.10768 1.16132 6.03333 -0.219121 -0.529387 -4.1156 0.54735 2.19253 -32.9742 3.42885 -5.26931 -40.0712 28.9902 -14.5044 -6.1745 -14.2199 -6.30452 -8.77352 0.234754 -3.03686 25.5789 5.57324 13.9243 52.0388 17.1765 5.64605 3.38825 -1.32861 11.5668 3.41035 0.0917417 2.92384 -0.385039 2.6414 6.61372 -1.66476 7.17567 -6.93217 6.22213 -5.7797 0.315034 0.582602 -1.62197 -2.11887 -0.205695 3.9128 -7.50266 1.00016 8.0256 -7.15036 -9.49548 -7.2137 -0.599747 2.35054 -8.48353 -1.73938 
10.6581 99.3561 16.8106 0.388866 -4.34177 -2.20058 0 0 0 2.76943 -0.478692 0.514885 -3.99512 5.80348 1.09919 6.03288 -0.111641 -0.653849 -4.42073 0.749953 2.15137 -33.3216 3.48621 -5.3353 -39.9159 28.9436 -14.3014 -6.17101 -14.2716 -6.30463 -8.87464 0.236288 -3.04213 25.326 5.53135 13.9245 52.2199 16.9521 5.52208 3.36535 -1.18007 11.4191 3.31848 0.0917239 3.13419 -0.329519 2.53073 6.60831 -1.64758 7.19794 -6.87474 6.03122 -6.01494 0.316391 0.59325 -1.00694 -2.26199 -0.118333 3.81048 -7.41779 0.944857 8.04469 -7.13185 -9.55167 -6.96049 -0.582313 2.37155 -8.55556 -1.76823 
10.6898 99.4193 16.8446 0.541378 -4.40747 -1.88523 0 0 0 1.89844 -0.410392 0.600309 -2.76433 5.81386 0.938021 5.5169 0.423382 -1.00113 -4.46825 -0.284007 1.6576 -34.2745 3.64023 -5.50646 -39.0187 29.0301 -14.6732 -6.43268 -15.3431 -5.70028 -8.94728 0.236822 -3.02596 24.7152 5.32462 13.5968 52.4394 16.649 5.61924 3.43956 -1.29908 10.9821 2.60839 0.091679 3.6095 -0.452275 2.58848 6.54926 -1.69658 7.2745 -7.63945 5.21072 -6.88271 0.313953 0.141133 1.30248 -0.912395 -0.279843 3.95969 -7.5977 0.901406 8.00217 -7.17556 -9.01086 -6.91357 -0.545393 2.06629 -7.49214 -1.20141 
10.6849 99.4182 16.9507 0.474725 -4.32707 -2.15329 0 0 0 2.09024 -0.570695 0.645212 -3.02849 5.98729 1.02827 5.55088 0.28956 -0.871346 -4.2425 -0.422244 1.73419 -34.0103 3.62218 -5.522 -39.3636 28.8808 -14.4811 -6.2887 -14.8013 -5.97075 -8.9651 0.224699 -2.86583 24.842 5.36278 13.6505 52.309 16.6521 5.68497 3.40516 -1.2971 11.0561 2.88138 0.091696 3.43706 -0.351104 2.59211 6.73497 -1.77773 7.37945 -7.53466 4.89283 -7.07599 0.302859 0.153241 1.19969 -0.926218 -0.289568 3.92979 -7.62096 1.01977 7.99884 -6.81754 -9.18448 -6.84242 -0.550293 2.12511 -7.6439 -1.52742 
10.7266 99.3951 16.9607 0.409496 -4.31307 -2.26763 0 0 0 2.47084 -0.353067 0.739118 -3.57458 5.82486 1.24732 6.17903 0.319828 -1.05019 -4.58895 -0.693865 1.81441 -33.5353 3.67924 -5.77336 -39.7293 28.8999 -14.3965 -6.16035 -14.3043 -6.03185 -9.20011 0.217082 -2.69778 25.3908 5.45831 13.6658 51.9955 16.5418 5.39874 3.37531 -1.46973 11.2293 2.9453 0.0916898 3.50125 -0.324063 2.59406 6.71583 -1.79513 7.34633 -7.42195 5.18908 -7.10868 0.322571 0.0966104 1.08503 -0.672163 -0.211825 3.88449 -7.52629 0.956336 7.9749 -6.96206 -9.45641 -6.63903 -0.549686 2.19719 -7.99638 -1.19573 
10.7603 99.4677 17.0229 0.584622 -4.26122 -1.79447 0 0 0 2.04767 -0.230081 0.507432 -3.20098 5.59814 0.951038 6.06438 0.41577 -1.02022 -4.61844 -0.806157 1.81644 -33.9965 3.6563 -5.60921 -39.1754 29.1233 -14.5275 -6.38595 -15.5651 -6.00777 -9.23398 0.198045 -2.45231 25.4259 5.44754 13.614 51.9993 16.6791 5.2401 3.44365 -1.66954 11.2351 2.70803 0.0883058 3.77245 -0.510179 2.54913 6.5246 -1.76249 7.3049 -7.80919 4.9611 -6.87389 0.298063 0.0465249 0.928687 -0.431638 -0.351868 3.99861 -7.63005 0.842352 7.73134 -6.93291 -9.40379 -6.06891 -0.499379 2.3811 -8.65921 -1.46122 
10.7516 99.4801 17.1157 0.524928 -4.35333 -2.06247 0 0 0 2.16773 0.135601 0.610325 -3.27864 5.22821 1.06873 6.11835 0.432541 -1.00648 -4.80304 -0.613117 1.89425 -34.0337 3.58888 -5.43357 -39.2832 28.7906 -14.3619 -6.09358 -14.2716 -5.88759 -9.06842 0.208823 -2.63232 25.4124 5.37772 13.4055 52.2842 16.2091 5.22036 3.2681 -1.20753 11.2029 2.56955 0.0840142 3.74308 -0.468848 2.78476 6.60126 -1.72655 7.20834 -7.511 4.7527 -6.93368 0.288034 0.140743 1.01161 -0.832005 -0.361059 4.15467 -7.72668 0.947341 7.8181 -6.65194 -9.11892 -6.52228 -0.520779 2.14324 -7.69353 -1.61655 
10.7994 99.4646 17.1703 0.510636 -4.32411 -2.1353 0 0 0 2.49713 -0.0510403 0.729991 -3.84147 5.49403 1.31175 6.86502 0.393884 -1.34807 -5.29518 -0.540871 1.89159 -33.5521 3.61554 -5.6095 -39.6265 28.3273 -14.7647 -6.04609 -14.0503 -5.3201 -8.94534 0.206323 -2.63752 25.8745 5.33361 13.0381 51.9799 16.1141 5.39089 3.27813 -1.38181 11.3567 3.37759 0.0993203 3.38994 -0.530396 2.79996 6.54437 -1.69938 7.20086 -7.39431 5.08123 -6.90619 0.306894 0.188647 0.841854 -0.987296 -0.365546 4.20689 -7.7 0.933528 7.67005 -6.53725 -9.23173 -6.40415 -0.517634 2.20861 -7.88526 -1.91297 
10.8314 99.4178 17.2274 0.410752 -4.20762 -2.46871 0 0 0 3.05935 0.106668 0.820683 -4.44196 4.99682 1.49861 6.93383 1.0951 -1.44563 -5.37391 -0.903719 1.85698 -33.573 3.61801 -5.61099 -40.1129 27.1643 -14.5882 -5.85238 -13.3345 -4.55545 -8.96918 0.235205 -2.99694 25.9326 5.35725 13.0823 52.1252 16.0374 5.04725 3.08999 -1.11672 11.7752 3.81383 0.0933259 2.80261 -0.442921 2.61052 6.66503 -1.7225 7.4882 -7.14878 5.2687 -7.20466 0.331929 0.163248 1.16301 -0.958809 -0.302305 4.0923 -7.60821 0.996479 7.64875 -6.65268 -9.52199 -6.61892 -0.551876 2.12977 -7.69434 -1.38216 
10.868 99.4085 17.2427 0.390221 -4.26827 -2.45396 0 0 0 3.06752 0.372198 0.762994 -4.37724 4.7269 1.43704 7.00066 1.35684 -1.5032 -5.54158 -0.974382 1.8684 -33.6092 3.61324 -5.59119 -40.2055 26.9418 -14.5565 -5.8183 -13.0643 -4.33752 -9.03413 0.267357 -3.38307 25.869 5.38118 13.1868 52.3456 16.0274 4.92619 3.09499 -0.991178 11.7111 3.35046 0.0865088 2.95472 -0.454737 2.78827 6.63009 -1.7637 7.23861 -6.98457 5.52993 -7.22817 0.349284 0.247663 1.07235 -1.27967 -0.329799 4.10895 -7.6937 1.01913 7.81661 -6.68866 -9.60658 -6.81098 -0.57288 2.06833 -7.53524 -1.0365 
10.8939 99.3934 17.3306 0.363273 -4.1407 -2.58036 0 0 0 3.01882 -0.133911 0.832342 -4.15487 5.22902 1.44813 6.4984 1.39081 -1.25662 -5.17855 -0.93733 1.88172 -34.1203 3.59737 -5.43471 -39.4085 28.1112 -14.7299 -6.09549 -14.413 -4.97069 -8.91031 0.235538 -3.02469 25.5766 5.31196 13.1188 52.4785 16.0575 5.08838 2.84586 -0.165645 11.9655 3.42536 0.067782 2.26318 -0.451266 2.58835 6.64293 -1.7929 7.51099 -6.99975 5.98749 -7.09355 0.371337 0.232882 0.317465 -1.04787 -0.282077 4.08341 -7.55702 0.977099 7.61073 -6.58323 -9.94644 -6.43182 -0.560321 2.27111 -8.25386 -1.35262 
10.9409 99.388 17.4161 0.491532 -3.98975 -2.28568 0 0 0 3.03114 -0.459263 0.690971 -4.33122 5.3272 1.33996 6.67278 1.63243 -1.32381 -5.36339 -0.913021 1.92305 -33.9926 3.60471 -5.48191 -39.7921 27.6467 -14.6297 -5.99226 -14.1724 -4.96972 -9.01092 0.183203 -2.32383 25.6069 5.31035 13.0987 52.607 15.9952 5.04407 2.91038 -0.313815 11.809 3.38938 0.0740305 2.50972 -0.598155 2.36809 6.49603 -1.72423 7.70117 -7.14577 5.74197 -7.32054 0.367465 0.22632 0.672992 -1.10333 -0.484631 4.04775 -7.83813 1.19312 7.47838 -6.80675 -10.1872 -6.43668 -0.574172 2.32669 -8.5139 -1.12902 
